<?xml version="1.0" encoding="UTF-8" standalone="no"?>
<!-- Created with Inkscape (http://www.inkscape.org/) -->

<svg
   width="90.993248mm"
   height="80.517052mm"
   viewBox="0 0 90.993248 80.517052"
   version="1.1"
   id="svg1"
   inkscape:version="1.3.2 (091e20e, 2023-11-25)"
   sodipodi:docname="chuva.svg"
   inkscape:export-filename="tempestade.png"
   inkscape:export-xdpi="27.591988"
   inkscape:export-ydpi="27.591988"
   xmlns:inkscape="http://www.inkscape.org/namespaces/inkscape"
   xmlns:sodipodi="http://sodipodi.sourceforge.net/DTD/sodipodi-0.dtd"
   xmlns:xlink="http://www.w3.org/1999/xlink"
   xmlns="http://www.w3.org/2000/svg"
   xmlns:svg="http://www.w3.org/2000/svg">
  <sodipodi:namedview
     id="namedview1"
     pagecolor="#ffffff"
     bordercolor="#000000"
     borderopacity="0.25"
     inkscape:showpageshadow="2"
     inkscape:pageopacity="0.0"
     inkscape:pagecheckerboard="0"
     inkscape:deskcolor="#d1d1d1"
     inkscape:document-units="mm"
     inkscape:zoom="0.56034652"
     inkscape:cx="104.39968"
     inkscape:cy="241.81465"
     inkscape:window-width="1152"
     inkscape:window-height="832"
     inkscape:window-x="0"
     inkscape:window-y="0"
     inkscape:window-maximized="1"
     inkscape:current-layer="svg1" />
  <defs
     id="defs1">
    <linearGradient
       id="linearGradient24"
       inkscape:collect="always">
      <stop
         style="stop-color:#133d81;stop-opacity:1;"
         offset="0"
         id="stop23" />
      <stop
         style="stop-color:#377eff;stop-opacity:0.98275566;"
         offset="1"
         id="stop24" />
    </linearGradient>
    <linearGradient
       id="linearGradient2"
       inkscape:collect="always">
      <stop
         style="stop-color:#5093ff;stop-opacity:1;"
         offset="0"
         id="stop1" />
      <stop
         style="stop-color:#002a81;stop-opacity:1;"
         offset="1"
         id="stop2" />
    </linearGradient>
    <linearGradient
       id="linearGradient95"
       inkscape:collect="always">
      <stop
         style="stop-color:#e8f5fd;stop-opacity:1;"
         offset="0"
         id="stop95" />
      <stop
         style="stop-color:#6baef9;stop-opacity:1;"
         offset="1"
         id="stop96" />
    </linearGradient>
    <linearGradient
       id="linearGradient16"
       inkscape:swatch="gradient">
      <stop
         style="stop-color:#e00b0b;stop-opacity:1;"
         offset="0.23551409"
         id="stop18" />
      <stop
         style="stop-color:#ff9533;stop-opacity:0;"
         offset="1"
         id="stop19" />
    </linearGradient>
    <linearGradient
       id="linearGradient16-1"
       inkscape:swatch="gradient">
      <stop
         style="stop-color:#e6fe15;stop-opacity:1;"
         offset="0.23551409"
         id="stop16" />
      <stop
         style="stop-color:#ff9533;stop-opacity:0;"
         offset="1"
         id="stop17" />
    </linearGradient>
    <linearGradient
       inkscape:collect="always"
       xlink:href="#linearGradient95"
       id="linearGradient104"
       gradientUnits="userSpaceOnUse"
       gradientTransform="matrix(0.5021241,0,0,0.51987591,88.586977,46.516734)"
       x1="96.854454"
       y1="33.101536"
       x2="97.505844"
       y2="99.249107" />
    <linearGradient
       inkscape:collect="always"
       xlink:href="#linearGradient2"
       id="linearGradient114"
       gradientUnits="userSpaceOnUse"
       gradientTransform="matrix(0.87575043,0,0,0.91679551,18.825701,-4.0657083)"
       x1="96.854454"
       y1="33.101536"
       x2="97.505844"
       y2="99.249107" />
    <linearGradient
       inkscape:collect="always"
       xlink:href="#linearGradient24"
       id="linearGradient4"
       x1="78.286743"
       y1="98.825005"
       x2="78.376022"
       y2="131.68976"
       gradientUnits="userSpaceOnUse"
       gradientTransform="matrix(0.77128245,0,0,0.77144696,31.913585,11.002297)" />
    <linearGradient
       inkscape:collect="always"
       xlink:href="#linearGradient24"
       id="linearGradient6"
       gradientUnits="userSpaceOnUse"
       gradientTransform="matrix(0.77128245,0,0,0.77144696,42.831793,11.002298)"
       x1="78.286743"
       y1="98.825005"
       x2="78.376022"
       y2="131.68976" />
    <linearGradient
       inkscape:collect="always"
       xlink:href="#linearGradient24"
       id="linearGradient7"
       gradientUnits="userSpaceOnUse"
       gradientTransform="matrix(0.77128245,0,0,0.77144696,53.624607,11.002301)"
       x1="78.286743"
       y1="98.825005"
       x2="78.376022"
       y2="131.68976" />
  </defs>
  <g
     inkscape:groupmode="layer"
     id="layer5"
     inkscape:label="Layer 3"
     transform="translate(-55.678611,-25.17432)">
    <path
       d="m 133.86508,63.09751 c -3.336,0.0194 -6.40131,1.9367 -8.01272,5.01174 -0.47397,-0.10115 -0.95626,-0.15316 -1.43987,-0.15528 -3.95027,0.0166 -7.19231,3.295797 -7.36585,7.450289 -4.26318,0.935754 -7.32113,4.887494 -7.32952,9.471885 4e-5,5.354105 4.1234,9.694696 9.20945,9.694616 1.03336,-0.0207 2.05614,-0.22427 3.02529,-0.60232 1.73892,2.12589 4.26784,3.35469 6.93277,3.36865 2.24138,-0.0157 4.40072,-0.89166 6.07259,-2.4633 1.72262,1.93134 4.12151,3.036579 6.63803,3.058359 3.27585,-0.0225 6.29426,-1.875679 7.92582,-4.866119 1.00845,0.41088 2.07799,0.63163 3.15916,0.65202 5.08574,-8e-5 9.20916,-4.340821 9.2092,-9.694616 -0.004,-4.908101 -3.49122,-9.039845 -8.12094,-9.619885 -0.24039,-5.161122 -4.284,-9.216749 -9.1926,-9.219949 -1.38721,5.3e-4 -2.75643,0.33097 -4.00532,0.96663 -1.73974,-1.94723 -4.16615,-3.05187 -6.70549,-3.05272 z"
       style="display:none;fill:url(#linearGradient104);stroke-width:0.0843048"
       id="path95-5-0-7-3" />
  </g>
  <g
     inkscape:label="Layer 1"
     inkscape:groupmode="layer"
     id="layer1"
     transform="translate(-55.678611,-25.17432)" />
  <g
     inkscape:groupmode="layer"
     id="layer7"
     inkscape:label="Layer 5"
     transform="translate(-55.678611,-25.17432)" />
  <g
     inkscape:groupmode="layer"
     id="layer6"
     inkscape:label="Layer 4"
     transform="translate(-55.678611,-25.17432)">
    <path
       d="m 97.794819,25.17432 c -5.818265,0.03433 -11.164462,3.415358 -13.974886,8.838152 -0.826634,-0.178356 -1.667854,-0.270105 -2.511244,-0.273843 -6.889668,0.02924 -12.544062,5.812083 -12.846739,13.138536 -7.435368,1.650219 -12.768717,8.619061 -12.783339,16.703613 7.1e-5,9.441945 7.191569,17.096527 16.062115,17.096367 1.80227,-0.0366 3.586089,-0.39551 5.27638,-1.0622 3.0328,3.74893 7.443484,5.91594 12.091351,5.94053 3.909193,-0.0274 7.675282,-1.57243 10.591142,-4.34401 3.004451,3.40592 7.188291,5.355 11.577321,5.39341 5.71339,-0.0396 10.97774,-3.30773 13.82338,-8.581298 1.75881,0.724532 3.62418,1.113838 5.50985,1.149798 8.87004,-1.4e-4 16.06162,-7.654984 16.06171,-17.096366 -0.007,-8.655417 -6.089,-15.941682 -14.16368,-16.964634 -0.41926,-9.101554 -7.47171,-16.253593 -16.03274,-16.259259 -2.41938,9.89e-4 -4.80747,0.583682 -6.98563,1.704654 -3.03427,-3.433923 -7.26615,-5.381929 -11.694991,-5.38345 z"
       style="fill:url(#linearGradient114);stroke-width:0.147851"
       id="path95-5-0-2-5-5-0-3-6"
       inkscape:export-filename="chuva.svg"
       inkscape:export-xdpi="29.589008"
       inkscape:export-ydpi="29.589008" />
    <rect
       style="fill:url(#linearGradient4);stroke-width:0.204411"
       id="rect2"
       width="4.3902416"
       height="15.694718"
       x="89.322266"
       y="90.019196"
       rx="2.1951208"
       ry="4.1729379"
       inkscape:export-filename="chuva.svg"
       inkscape:export-xdpi="29.871038"
       inkscape:export-ydpi="29.871038"
       transform="matrix(1,0,-0.02065049,0.99978676,0,0)" />
    <rect
       style="fill:url(#linearGradient6);stroke-width:0.204411"
       id="rect2-56"
       width="4.3902416"
       height="15.694718"
       x="100.24046"
       y="90.019196"
       rx="2.1951208"
       ry="4.1729379"
       inkscape:export-filename="chuva.svg"
       inkscape:export-xdpi="29.871038"
       inkscape:export-ydpi="29.871038"
       transform="matrix(1,0,-0.02065049,0.99978676,0,0)" />
    <rect
       style="fill:url(#linearGradient7);stroke-width:0.204411"
       id="rect2-56-0"
       width="4.3902416"
       height="15.694718"
       x="111.03328"
       y="90.019196"
       rx="2.1951208"
       ry="4.1729379"
       inkscape:export-filename="chuva.svg"
       inkscape:export-xdpi="29.871038"
       inkscape:export-ydpi="29.871038"
       transform="matrix(1,0,-0.02065049,0.99978676,0,0)" />
  </g>
  <g
     inkscape:groupmode="layer"
     id="layer3"
     inkscape:label="Layer 2"
     style="fill:#ffba0a;fill-opacity:1"
     transform="translate(-55.678611,-25.17432)" />
</svg>
