<?xml version="1.0" encoding="UTF-8" standalone="no"?>
<!-- Created with Inkscape (http://www.inkscape.org/) -->

<svg
   width="62.097649mm"
   height="40.436577mm"
   viewBox="0 0 62.097649 40.436577"
   version="1.1"
   id="svg1"
   inkscape:version="1.3.2 (091e20e, 2023-11-25)"
   sodipodi:docname="neblina.svg"
   xmlns:inkscape="http://www.inkscape.org/namespaces/inkscape"
   xmlns:sodipodi="http://sodipodi.sourceforge.net/DTD/sodipodi-0.dtd"
   xmlns:xlink="http://www.w3.org/1999/xlink"
   xmlns="http://www.w3.org/2000/svg"
   xmlns:svg="http://www.w3.org/2000/svg">
  <sodipodi:namedview
     id="namedview1"
     pagecolor="#ffffff"
     bordercolor="#000000"
     borderopacity="0.25"
     inkscape:showpageshadow="2"
     inkscape:pageopacity="0.0"
     inkscape:pagecheckerboard="0"
     inkscape:deskcolor="#d1d1d1"
     inkscape:document-units="mm"
     inkscape:zoom="0.56034652"
     inkscape:cx="115.10734"
     inkscape:cy="-25.876845"
     inkscape:window-width="1152"
     inkscape:window-height="832"
     inkscape:window-x="0"
     inkscape:window-y="0"
     inkscape:window-maximized="1"
     inkscape:current-layer="svg1" />
  <defs
     id="defs1">
    <linearGradient
       id="linearGradient2"
       inkscape:collect="always">
      <stop
         style="stop-color:#cae5f7;stop-opacity:1;"
         offset="0"
         id="stop1" />
      <stop
         style="stop-color:#378aed;stop-opacity:1;"
         offset="1"
         id="stop2" />
    </linearGradient>
    <linearGradient
       id="linearGradient95"
       inkscape:collect="always">
      <stop
         style="stop-color:#e8f5fd;stop-opacity:1;"
         offset="0"
         id="stop95" />
      <stop
         style="stop-color:#6baef9;stop-opacity:1;"
         offset="1"
         id="stop96" />
    </linearGradient>
    <linearGradient
       id="linearGradient16"
       inkscape:swatch="gradient">
      <stop
         style="stop-color:#e00b0b;stop-opacity:1;"
         offset="0.23551409"
         id="stop18" />
      <stop
         style="stop-color:#ff9533;stop-opacity:0;"
         offset="1"
         id="stop19" />
    </linearGradient>
    <linearGradient
       id="linearGradient16-1"
       inkscape:swatch="gradient">
      <stop
         style="stop-color:#e6fe15;stop-opacity:1;"
         offset="0.23551409"
         id="stop16" />
      <stop
         style="stop-color:#ff9533;stop-opacity:0;"
         offset="1"
         id="stop17" />
    </linearGradient>
    <linearGradient
       inkscape:collect="always"
       xlink:href="#linearGradient95"
       id="linearGradient104"
       gradientUnits="userSpaceOnUse"
       gradientTransform="matrix(0.5021241,0,0,0.51987591,88.586977,46.516734)"
       x1="96.854454"
       y1="33.101536"
       x2="97.505844"
       y2="99.249107" />
    <linearGradient
       inkscape:collect="always"
       xlink:href="#linearGradient2"
       id="linearGradient111"
       gradientUnits="userSpaceOnUse"
       gradientTransform="matrix(0.59594552,0,0,0.64301151,36.945952,11.390981)"
       x1="96.854454"
       y1="33.101536"
       x2="97.505844"
       y2="99.249107" />
  </defs>
  <g
     inkscape:groupmode="layer"
     id="layer5"
     inkscape:label="Layer 3"
     transform="translate(-62.069164,-31.898928)">
    <path
       d="m 133.86508,63.09751 c -3.336,0.0194 -6.40131,1.9367 -8.01272,5.01174 -0.47397,-0.10115 -0.95626,-0.15316 -1.43987,-0.15528 -3.95027,0.0166 -7.19231,3.295797 -7.36585,7.450289 -4.26318,0.935754 -7.32113,4.887494 -7.32952,9.471885 4e-5,5.354105 4.1234,9.694696 9.20945,9.694616 1.03336,-0.0207 2.05614,-0.22427 3.02529,-0.60232 1.73892,2.12589 4.26784,3.35469 6.93277,3.36865 2.24138,-0.0157 4.40072,-0.89166 6.07259,-2.4633 1.72262,1.93134 4.12151,3.036579 6.63803,3.058359 3.27585,-0.0225 6.29426,-1.875679 7.92582,-4.866119 1.00845,0.41088 2.07799,0.63163 3.15916,0.65202 5.08574,-8e-5 9.20916,-4.340821 9.2092,-9.694616 -0.004,-4.908101 -3.49122,-9.039845 -8.12094,-9.619885 -0.24039,-5.161122 -4.284,-9.216749 -9.1926,-9.219949 -1.38721,5.3e-4 -2.75643,0.33097 -4.00532,0.96663 -1.73974,-1.94723 -4.16615,-3.05187 -6.70549,-3.05272 z"
       style="display:none;fill:url(#linearGradient104);stroke-width:0.0843048"
       id="path95-5-0-7-3" />
  </g>
  <g
     inkscape:label="Layer 1"
     inkscape:groupmode="layer"
     id="layer1"
     transform="translate(-62.069164,-31.898928)" />
  <g
     inkscape:groupmode="layer"
     id="layer7"
     inkscape:label="Layer 5"
     transform="translate(-62.069164,-31.898928)" />
  <g
     inkscape:groupmode="layer"
     id="layer6"
     inkscape:label="Layer 4"
     transform="translate(-62.069164,-31.898928)">
    <path
       d="m 90.683955,31.898928 c -3.959336,0.0241 -7.596989,2.395729 -9.509497,6.199105 -0.562509,-0.1251 -1.13502,-0.189617 -1.708939,-0.192237 -4.688406,0.0205 -8.536143,4.076397 -8.742102,9.214942 -4.740982,1.08449 -8.225758,5.443955 -8.654253,10.653613 h 61.875296 c -0.008,-6.067422 -4.1456,-11.174083 -9.63818,-11.891264 -0.28529,-6.383533 -5.08417,-11.399985 -10.90992,-11.403955 -1.64638,6.9e-4 -3.2715,0.409574 -4.753717,1.195793 -2.064818,-2.408448 -4.944881,-3.774927 -7.958688,-3.775997 z"
       style="fill:url(#linearGradient111);stroke-width:0.102143"
       id="path3"
       inkscape:export-filename="neblina.png"
       inkscape:export-xdpi="45.122288"
       inkscape:export-ydpi="45.122288" />
    <rect
       style="fill:#99c5f5;fill-opacity:1;stroke-width:0.351651"
       id="rect2"
       width="62.087925"
       height="3.5503263"
       x="62.078888"
       y="59.323708"
       rx="0.29828382"
       ry="3.5503263" />
    <rect
       style="fill:#b1d2f7;fill-opacity:1;stroke-width:0.308721"
       id="rect2-0"
       width="47.853321"
       height="3.5503263"
       x="68.743187"
       y="63.96735"
       rx="0.32448399"
       ry="3.5503263" />
    <rect
       style="fill:#bbd8f8;fill-opacity:1;stroke-width:0.216718"
       id="rect2-0-1"
       width="23.581541"
       height="3.5503263"
       x="80.829666"
       y="68.785179"
       rx="0.54461318"
       ry="3.5503263" />
  </g>
  <g
     inkscape:groupmode="layer"
     id="layer3"
     inkscape:label="Layer 2"
     style="fill:#ffba0a;fill-opacity:1"
     transform="translate(-62.069164,-31.898928)" />
</svg>
