<?xml version="1.0" encoding="UTF-8" standalone="no"?>
<!-- Created with Inkscape (http://www.inkscape.org/) -->

<svg
   width="6.7825322mm"
   height="11.54716mm"
   viewBox="0 0 6.7825322 11.54716"
   version="1.1"
   id="svg1"
   inkscape:version="1.3.2 (091e20e, 2023-11-25)"
   sodipodi:docname="precipitacao.svg"
   inkscape:export-filename="tempestade.png"
   inkscape:export-xdpi="27.591988"
   inkscape:export-ydpi="27.591988"
   xmlns:inkscape="http://www.inkscape.org/namespaces/inkscape"
   xmlns:sodipodi="http://sodipodi.sourceforge.net/DTD/sodipodi-0.dtd"
   xmlns:xlink="http://www.w3.org/1999/xlink"
   xmlns="http://www.w3.org/2000/svg"
   xmlns:svg="http://www.w3.org/2000/svg">
  <sodipodi:namedview
     id="namedview1"
     pagecolor="#ffffff"
     bordercolor="#000000"
     borderopacity="0.25"
     inkscape:showpageshadow="2"
     inkscape:pageopacity="0.0"
     inkscape:pagecheckerboard="0"
     inkscape:deskcolor="#d1d1d1"
     inkscape:document-units="mm"
     inkscape:zoom="0.39622483"
     inkscape:cx="-61.833581"
     inkscape:cy="56.785942"
     inkscape:window-width="1152"
     inkscape:window-height="832"
     inkscape:window-x="0"
     inkscape:window-y="0"
     inkscape:window-maximized="1"
     inkscape:current-layer="layer6" />
  <defs
     id="defs1">
    <linearGradient
       id="linearGradient10"
       inkscape:collect="always">
      <stop
         style="stop-color:#3183f9;stop-opacity:0.99215686;"
         offset="0"
         id="stop10" />
      <stop
         style="stop-color:#96c9fe;stop-opacity:0.98431373;"
         offset="1"
         id="stop11" />
    </linearGradient>
    <linearGradient
       id="linearGradient95"
       inkscape:collect="always">
      <stop
         style="stop-color:#e8f5fd;stop-opacity:1;"
         offset="0"
         id="stop95" />
      <stop
         style="stop-color:#6baef9;stop-opacity:1;"
         offset="1"
         id="stop96" />
    </linearGradient>
    <linearGradient
       id="linearGradient16"
       inkscape:swatch="gradient">
      <stop
         style="stop-color:#e00b0b;stop-opacity:1;"
         offset="0.23551409"
         id="stop18" />
      <stop
         style="stop-color:#ff9533;stop-opacity:0;"
         offset="1"
         id="stop19" />
    </linearGradient>
    <linearGradient
       id="linearGradient16-1"
       inkscape:swatch="gradient">
      <stop
         style="stop-color:#e6fe15;stop-opacity:1;"
         offset="0.23551409"
         id="stop16" />
      <stop
         style="stop-color:#ff9533;stop-opacity:0;"
         offset="1"
         id="stop17" />
    </linearGradient>
    <linearGradient
       inkscape:collect="always"
       xlink:href="#linearGradient95"
       id="linearGradient104"
       gradientUnits="userSpaceOnUse"
       gradientTransform="matrix(0.5021241,0,0,0.51987591,88.586977,46.516734)"
       x1="96.854454"
       y1="33.101536"
       x2="97.505844"
       y2="99.249107" />
    <linearGradient
       inkscape:collect="always"
       xlink:href="#linearGradient10"
       id="linearGradient17"
       gradientUnits="userSpaceOnUse"
       gradientTransform="translate(-12.216868,34.990655)"
       x1="83.275047"
       y1="102.45828"
       x2="88.881981"
       y2="99.64431" />
  </defs>
  <g
     inkscape:groupmode="layer"
     id="layer5"
     inkscape:label="Layer 3"
     transform="translate(-69.705339,-127.59401)">
    <path
       d="m 133.86508,63.09751 c -3.336,0.0194 -6.40131,1.9367 -8.01272,5.01174 -0.47397,-0.10115 -0.95626,-0.15316 -1.43987,-0.15528 -3.95027,0.0166 -7.19231,3.295797 -7.36585,7.450289 -4.26318,0.935754 -7.32113,4.887494 -7.32952,9.471885 4e-5,5.354105 4.1234,9.694696 9.20945,9.694616 1.03336,-0.0207 2.05614,-0.22427 3.02529,-0.60232 1.73892,2.12589 4.26784,3.35469 6.93277,3.36865 2.24138,-0.0157 4.40072,-0.89166 6.07259,-2.4633 1.72262,1.93134 4.12151,3.036579 6.63803,3.058359 3.27585,-0.0225 6.29426,-1.875679 7.92582,-4.866119 1.00845,0.41088 2.07799,0.63163 3.15916,0.65202 5.08574,-8e-5 9.20916,-4.340821 9.2092,-9.694616 -0.004,-4.908101 -3.49122,-9.039845 -8.12094,-9.619885 -0.24039,-5.161122 -4.284,-9.216749 -9.1926,-9.219949 -1.38721,5.3e-4 -2.75643,0.33097 -4.00532,0.96663 -1.73974,-1.94723 -4.16615,-3.05187 -6.70549,-3.05272 z"
       style="display:none;fill:url(#linearGradient104);stroke-width:0.0843048"
       id="path95-5-0-7-3" />
  </g>
  <g
     inkscape:label="Layer 1"
     inkscape:groupmode="layer"
     id="layer1"
     transform="translate(-69.705339,-127.59401)" />
  <g
     inkscape:groupmode="layer"
     id="layer7"
     inkscape:label="Layer 5"
     transform="translate(-69.705339,-127.59401)" />
  <g
     inkscape:groupmode="layer"
     id="layer6"
     inkscape:label="Layer 4"
     transform="translate(-69.705339,-127.59401)">
    <path
       d="m 73.096866,127.59401 -3.170866,6.9205 0.01395,0.0109 c -0.153171,0.39007 -0.232719,0.80515 -0.234611,1.22421 -1.42e-4,1.87316 1.518386,3.39169 3.391524,3.39155 1.872936,-1.5e-4 3.391149,-1.51859 3.391008,-3.39155 -4.49e-4,-0.2949 -0.03936,-0.58849 -0.115756,-0.87333 -0.0081,-0.0325 -0.01675,-0.0649 -0.02584,-0.0971 l -0.370003,-0.81804 z"
       style="fill:url(#linearGradient17);stroke-width:0.146661"
       id="path10-7"
       inkscape:export-filename="precipitacao.png"
       inkscape:export-xdpi="33.704227"
       inkscape:export-ydpi="33.704227" />
  </g>
  <g
     inkscape:groupmode="layer"
     id="layer3"
     inkscape:label="Layer 2"
     style="fill:#ffba0a;fill-opacity:1"
     transform="translate(-69.705339,-127.59401)" />
</svg>
